<?xml version="1.0" encoding="UTF-8" standalone="no"?><svg xmlns="http://www.w3.org/2000/svg" xmlns:xlink="http://www.w3.org/1999/xlink" contentScriptType="application/ecmascript" contentStyleType="text/css" height="372px" preserveAspectRatio="none" style="width:498px;height:372px;" version="1.1" viewBox="0 0 498 372" width="498px" zoomAndPan="magnify"><defs><filter height="300%" id="fdmu05lwrulvj" width="300%" x="-1" y="-1"><feGaussianBlur result="blurOut" stdDeviation="2.0"/><feColorMatrix in="blurOut" result="blurOut2" type="matrix" values="0 0 0 0 0 0 0 0 0 0 0 0 0 0 0 0 0 0 .4 0"/><feOffset dx="4.0" dy="4.0" in="blurOut2" result="blurOut3"/><feBlend in="SourceGraphic" in2="blurOut3" mode="normal"/></filter></defs><g><rect fill="#DDDDDD" height="350.7734" style="stroke: #A80036; stroke-width: 1.0;" width="284.5" x="4" y="4"/><text fill="#000000" font-family="sans-serif" font-size="13" font-weight="bold" lengthAdjust="spacingAndGlyphs" textLength="97" x="97.75" y="17.4951">IPF Application</text><rect fill="#FFFFFF" filter="url(#fdmu05lwrulvj)" height="249.4609" style="stroke: #A80036; stroke-width: 1.0;" width="10" x="229" y="92.9609"/><rect fill="#FFFFFF" filter="url(#fdmu05lwrulvj)" height="30.3516" style="stroke: #A80036; stroke-width: 1.0;" width="10" x="442" y="189.0156"/><rect fill="#FFFFFF" filter="url(#fdmu05lwrulvj)" height="30.3516" style="stroke: #A80036; stroke-width: 1.0;" width="10" x="442" y="281.7188"/><rect fill="#FFFFFF" filter="url(#fdmu05lwrulvj)" height="79.0547" style="stroke: #000000; stroke-width: 2.0;" width="313.5" x="173.5" y="148.6641"/><line style="stroke: #A80036; stroke-width: 1.0; stroke-dasharray: 5.0,5.0;" x1="78" x2="78" y1="60.9609" y2="360.7734"/><line style="stroke: #A80036; stroke-width: 1.0; stroke-dasharray: 5.0,5.0;" x1="233.5" x2="233.5" y1="60.9609" y2="360.7734"/><line style="stroke: #A80036; stroke-width: 1.0; stroke-dasharray: 5.0,5.0;" x1="447" x2="447" y1="60.9609" y2="360.7734"/><rect fill="#FEFECE" filter="url(#fdmu05lwrulvj)" height="31.6094" style="stroke: #A80036; stroke-width: 1.5;" width="136" x="8" y="24.3516"/><text fill="#000000" font-family="sans-serif" font-size="14" lengthAdjust="spacingAndGlyphs" textLength="122" x="15" y="45.8848">Client Camel Route</text><rect fill="#FEFECE" filter="url(#fdmu05lwrulvj)" height="31.6094" style="stroke: #A80036; stroke-width: 1.5;" width="97" x="183.5" y="24.3516"/><text fill="#000000" font-family="sans-serif" font-size="14" lengthAdjust="spacingAndGlyphs" textLength="83" x="190.5" y="45.8848">IPF Producer</text><rect fill="#FEFECE" filter="url(#fdmu05lwrulvj)" height="31.6094" style="stroke: #A80036; stroke-width: 1.5;" width="56" x="417" y="24.3516"/><text fill="#000000" font-family="sans-serif" font-size="14" lengthAdjust="spacingAndGlyphs" textLength="42" x="424" y="45.8848">Server</text><rect fill="#FFFFFF" filter="url(#fdmu05lwrulvj)" height="249.4609" style="stroke: #A80036; stroke-width: 1.0;" width="10" x="229" y="92.9609"/><rect fill="#FFFFFF" filter="url(#fdmu05lwrulvj)" height="30.3516" style="stroke: #A80036; stroke-width: 1.0;" width="10" x="442" y="189.0156"/><rect fill="#FFFFFF" filter="url(#fdmu05lwrulvj)" height="30.3516" style="stroke: #A80036; stroke-width: 1.0;" width="10" x="442" y="281.7188"/><polygon fill="#A80036" points="217,88.9609,227,92.9609,217,96.9609,221,92.9609" style="stroke: #A80036; stroke-width: 1.0;"/><line style="stroke: #A80036; stroke-width: 1.0;" x1="78" x2="223" y1="92.9609" y2="92.9609"/><text fill="#000000" font-family="sans-serif" font-size="13" lengthAdjust="spacingAndGlyphs" textLength="132" x="85" y="88.4561">Unfragmented Request</text><path d="M13,106.3125 L13,132.3125 L69,132.3125 L69,116.3125 L59,106.3125 L13,106.3125 " fill="#FBFB77" filter="url(#fdmu05lwrulvj)" style="stroke: #A80036; stroke-width: 1.0;"/><path d="M59,106.3125 L59,116.3125 L69,116.3125 L59,106.3125 " fill="#FBFB77" style="stroke: #A80036; stroke-width: 1.0;"/><text fill="#000000" font-family="sans-serif" font-size="13" lengthAdjust="spacingAndGlyphs" textLength="35" x="19" y="124.8076">.to(...)</text><path d="M173.5,148.6641 L246.5,148.6641 L246.5,156.6641 L236.5,166.6641 L173.5,166.6641 L173.5,148.6641 " fill="#EEEEEE" style="stroke: #000000; stroke-width: 1.0;"/><rect fill="none" height="79.0547" style="stroke: #000000; stroke-width: 2.0;" width="313.5" x="173.5" y="148.6641"/><text fill="#000000" font-family="sans-serif" font-size="13" font-weight="bold" lengthAdjust="spacingAndGlyphs" textLength="28" x="188.5" y="163.1592">loop</text><text fill="#000000" font-family="sans-serif" font-size="11" font-weight="bold" lengthAdjust="spacingAndGlyphs" textLength="60" x="261.5" y="162.083">[n-1 times]</text><polygon fill="#A80036" points="430,185.0156,440,189.0156,430,193.0156,434,189.0156" style="stroke: #A80036; stroke-width: 1.0;"/><line style="stroke: #A80036; stroke-width: 1.0;" x1="239" x2="436" y1="189.0156" y2="189.0156"/><text fill="#000000" font-family="sans-serif" font-size="13" lengthAdjust="spacingAndGlyphs" textLength="121" x="246" y="184.5107">Fragment of Request</text><polygon fill="#A80036" points="250,215.3672,240,219.3672,250,223.3672,246,219.3672" style="stroke: #A80036; stroke-width: 1.0;"/><line style="stroke: #A80036; stroke-width: 1.0; stroke-dasharray: 2.0,2.0;" x1="244" x2="446" y1="219.3672" y2="219.3672"/><text fill="#000000" font-family="sans-serif" font-size="13" lengthAdjust="spacingAndGlyphs" textLength="179" x="256" y="214.8623">Fragment of Acknowledgement</text><polygon fill="#A80036" points="430,277.7188,440,281.7188,430,285.7188,434,281.7188" style="stroke: #A80036; stroke-width: 1.0;"/><line style="stroke: #A80036; stroke-width: 1.0;" x1="239" x2="436" y1="281.7188" y2="281.7188"/><text fill="#000000" font-family="sans-serif" font-size="13" lengthAdjust="spacingAndGlyphs" textLength="150" x="246" y="277.2139">Last Fragment of Request</text><polygon fill="#A80036" points="250,308.0703,240,312.0703,250,316.0703,246,312.0703" style="stroke: #A80036; stroke-width: 1.0;"/><line style="stroke: #A80036; stroke-width: 1.0; stroke-dasharray: 2.0,2.0;" x1="244" x2="446" y1="312.0703" y2="312.0703"/><text fill="#000000" font-family="sans-serif" font-size="13" lengthAdjust="spacingAndGlyphs" textLength="177" x="256" y="307.5654">Transaction-specific Response</text><polygon fill="#A80036" points="89,338.4219,79,342.4219,89,346.4219,85,342.4219" style="stroke: #A80036; stroke-width: 1.0;"/><line style="stroke: #A80036; stroke-width: 1.0; stroke-dasharray: 2.0,2.0;" x1="83" x2="233" y1="342.4219" y2="342.4219"/><text fill="#000000" font-family="sans-serif" font-size="13" lengthAdjust="spacingAndGlyphs" textLength="58" x="95" y="337.917">Response</text><!--
@startuml
hide footbox


box "IPF Application"
participant "Client Camel Route" as Client
participant "IPF Producer" as PRO
end box
participant Server

Client -> PRO: Unfragmented Request
note left of Client: .to(...)
activate PRO
loop n-1 times
    PRO -> Server : Fragment of Request
    activate Server
    Server - -> PRO : Fragment of Acknowledgement
    deactivate Server
end
|||

PRO -> Server : Last Fragment of Request
activate Server
Server - -> PRO: Transaction-specific Response
deactivate Server

PRO - -> Client : Response
deactivate PRO

@enduml

PlantUML version 1.2018.01(Sun Jan 28 19:08:22 CET 2018)
(GPL source distribution)
Java Runtime: OpenJDK Runtime Environment
JVM: OpenJDK 64-Bit Server VM
Java Version: 1.8.0_152-release-1248-b8
Operating System: Windows 10
OS Version: 10.0
Default Encoding: Cp1252
Language: en
Country: US
--></g></svg>