<?xml version="1.0" encoding="UTF-8" standalone="no"?><svg xmlns="http://www.w3.org/2000/svg" xmlns:xlink="http://www.w3.org/1999/xlink" contentScriptType="application/ecmascript" contentStyleType="text/css" height="383px" preserveAspectRatio="none" style="width:506px;height:383px;" version="1.1" viewBox="0 0 506 383" width="506px" zoomAndPan="magnify"><defs><filter height="300%" id="f1kcxvt0082zri" width="300%" x="-1" y="-1"><feGaussianBlur result="blurOut" stdDeviation="2.0"/><feColorMatrix in="blurOut" result="blurOut2" type="matrix" values="0 0 0 0 0 0 0 0 0 0 0 0 0 0 0 0 0 0 .4 0"/><feOffset dx="4.0" dy="4.0" in="blurOut2" result="blurOut3"/><feBlend in="SourceGraphic" in2="blurOut3" mode="normal"/></filter></defs><g><rect fill="#FFFFFF" filter="url(#f1kcxvt0082zri)" height="30.3516" style="stroke: #A80036; stroke-width: 1.0;" width="10" x="82.5" y="190.3672"/><rect fill="#FFFFFF" filter="url(#f1kcxvt0082zri)" height="30.3516" style="stroke: #A80036; stroke-width: 1.0;" width="10" x="82.5" y="316.4219"/><rect fill="#FFFFFF" filter="url(#f1kcxvt0082zri)" height="30.3516" style="stroke: #A80036; stroke-width: 1.0;" width="10" x="358.5" y="97.3125"/><rect fill="#FFFFFF" filter="url(#f1kcxvt0082zri)" height="156.4063" style="stroke: #A80036; stroke-width: 1.0;" width="10" x="358.5" y="190.3672"/><rect fill="#FFFFFF" filter="url(#f1kcxvt0082zri)" height="79.0547" style="stroke: #000000; stroke-width: 2.0;" width="437" x="13" y="56.6094"/><rect fill="#FFFFFF" filter="url(#f1kcxvt0082zri)" height="205.1094" style="stroke: #000000; stroke-width: 2.0;" width="482" x="13" y="149.6641"/><line style="stroke: #A80036; stroke-width: 1.0; stroke-dasharray: 5.0,5.0;" x1="87" x2="87" y1="39.6094" y2="371.7734"/><line style="stroke: #A80036; stroke-width: 1.0; stroke-dasharray: 5.0,5.0;" x1="363" x2="363" y1="39.6094" y2="371.7734"/><rect fill="#FEFECE" filter="url(#f1kcxvt0082zri)" height="31.6094" style="stroke: #A80036; stroke-width: 1.5;" width="125" x="23" y="3"/><text fill="#000000" font-family="sans-serif" font-size="14" lengthAdjust="spacingAndGlyphs" textLength="111" x="30" y="24.5332">Initiating Gateway</text><rect fill="#FEFECE" filter="url(#f1kcxvt0082zri)" height="31.6094" style="stroke: #A80036; stroke-width: 1.5;" width="149" x="287" y="3"/><text fill="#000000" font-family="sans-serif" font-size="14" lengthAdjust="spacingAndGlyphs" textLength="135" x="294" y="24.5332">Responding Gateway</text><rect fill="#FFFFFF" filter="url(#f1kcxvt0082zri)" height="30.3516" style="stroke: #A80036; stroke-width: 1.0;" width="10" x="82.5" y="190.3672"/><rect fill="#FFFFFF" filter="url(#f1kcxvt0082zri)" height="30.3516" style="stroke: #A80036; stroke-width: 1.0;" width="10" x="82.5" y="316.4219"/><rect fill="#FFFFFF" filter="url(#f1kcxvt0082zri)" height="30.3516" style="stroke: #A80036; stroke-width: 1.0;" width="10" x="358.5" y="97.3125"/><rect fill="#FFFFFF" filter="url(#f1kcxvt0082zri)" height="156.4063" style="stroke: #A80036; stroke-width: 1.0;" width="10" x="358.5" y="190.3672"/><path d="M13,56.6094 L195,56.6094 L195,64.6094 L185,74.6094 L13,74.6094 L13,56.6094 " fill="#EEEEEE" style="stroke: #000000; stroke-width: 1.0;"/><rect fill="none" height="79.0547" style="stroke: #000000; stroke-width: 2.0;" width="437" x="13" y="56.6094"/><text fill="#000000" font-family="sans-serif" font-size="13" font-weight="bold" lengthAdjust="spacingAndGlyphs" textLength="137" x="28" y="71.1045">Synchronous Request</text><polygon fill="#A80036" points="346.5,93.3125,356.5,97.3125,346.5,101.3125,350.5,97.3125" style="stroke: #A80036; stroke-width: 1.0;"/><line style="stroke: #A80036; stroke-width: 1.0;" x1="87.5" x2="352.5" y1="97.3125" y2="97.3125"/><text fill="#000000" font-family="sans-serif" font-size="13" lengthAdjust="spacingAndGlyphs" textLength="180" x="94.5" y="92.4561">Cross Gateway Query Request</text><polygon fill="#A80036" points="98.5,123.6641,88.5,127.6641,98.5,131.6641,94.5,127.6641" style="stroke: #A80036; stroke-width: 1.0;"/><line style="stroke: #A80036; stroke-width: 1.0; stroke-dasharray: 2.0,2.0;" x1="92.5" x2="362.5" y1="127.6641" y2="127.6641"/><text fill="#000000" font-family="sans-serif" font-size="13" lengthAdjust="spacingAndGlyphs" textLength="242" x="104.5" y="122.8076">Cross Gateway Query Request Response</text><path d="M13,149.6641 L201,149.6641 L201,157.6641 L191,167.6641 L13,167.6641 L13,149.6641 " fill="#EEEEEE" style="stroke: #000000; stroke-width: 1.0;"/><rect fill="none" height="205.1094" style="stroke: #000000; stroke-width: 2.0;" width="482" x="13" y="149.6641"/><text fill="#000000" font-family="sans-serif" font-size="13" font-weight="bold" lengthAdjust="spacingAndGlyphs" textLength="143" x="28" y="164.1592">Asynchronous Request</text><polygon fill="#A80036" points="346.5,186.3672,356.5,190.3672,346.5,194.3672,350.5,190.3672" style="stroke: #A80036; stroke-width: 1.0;"/><line style="stroke: #A80036; stroke-width: 1.0;" x1="92.5" x2="352.5" y1="190.3672" y2="190.3672"/><text fill="#000000" font-family="sans-serif" font-size="13" lengthAdjust="spacingAndGlyphs" textLength="180" x="99.5" y="185.5107">Cross Gateway Query Request</text><polygon fill="#A80036" points="98.5,216.7188,88.5,220.7188,98.5,224.7188,94.5,220.7188" style="stroke: #A80036; stroke-width: 1.0;"/><line style="stroke: #A80036; stroke-width: 1.0; stroke-dasharray: 2.0,2.0;" x1="92.5" x2="357.5" y1="220.7188" y2="220.7188"/><text fill="#000000" font-family="sans-serif" font-size="13" lengthAdjust="spacingAndGlyphs" textLength="242" x="104.5" y="215.8623">Cross Gateway Query Request Response</text><path d="M373,258.7188 L373,284.7188 L481,284.7188 L481,268.7188 L471,258.7188 L373,258.7188 " fill="#FBFB77" filter="url(#f1kcxvt0082zri)" style="stroke: #A80036; stroke-width: 1.0;"/><path d="M471,258.7188 L471,268.7188 L481,268.7188 L471,258.7188 " fill="#FBFB77" style="stroke: #A80036; stroke-width: 1.0;"/><text fill="#000000" font-family="sans-serif" font-size="13" lengthAdjust="spacingAndGlyphs" textLength="87" x="379" y="277.2139">Handle request</text><polygon fill="#A80036" points="103.5,312.4219,93.5,316.4219,103.5,320.4219,99.5,316.4219" style="stroke: #A80036; stroke-width: 1.0;"/><line style="stroke: #A80036; stroke-width: 1.0;" x1="97.5" x2="357.5" y1="316.4219" y2="316.4219"/><text fill="#000000" font-family="sans-serif" font-size="13" lengthAdjust="spacingAndGlyphs" textLength="165" x="109.5" y="311.5654">Cross Gateway Query Reply</text><polygon fill="#A80036" points="351.5,342.7734,361.5,346.7734,351.5,350.7734,355.5,346.7734" style="stroke: #A80036; stroke-width: 1.0;"/><line style="stroke: #A80036; stroke-width: 1.0; stroke-dasharray: 2.0,2.0;" x1="87.5" x2="357.5" y1="346.7734" y2="346.7734"/><text fill="#000000" font-family="sans-serif" font-size="13" lengthAdjust="spacingAndGlyphs" textLength="227" x="94.5" y="341.917">Cross Gateway Query Reply Response</text><!--
@startuml
hide footbox

participant "Initiating Gateway" as IG
participant "Responding Gateway" as RG

group Synchronous Request
IG -> RG : Cross Gateway Query Request
activate RG
RG - -> IG : Cross Gateway Query Request Response
deactivate RG
end group

group Asynchronous Request
IG -> RG : Cross Gateway Query Request
activate IG
activate RG
RG - -> IG : Cross Gateway Query Request Response
deactivate IG
|||
note right of RG: Handle request
RG -> IG : Cross Gateway Query Reply
activate IG
IG - -> RG : Cross Gateway Query Reply Response
deactivate IG
deactivate RG
end group

@enduml

PlantUML version 1.2018.11(Sat Sep 22 18:43:53 CEST 2018)
(GPL source distribution)
Java Runtime: OpenJDK Runtime Environment
JVM: OpenJDK 64-Bit Server VM
Java Version: 1.8.0_152-release-1248-b19
Operating System: Windows 10
OS Version: 10.0
Default Encoding: Cp1252
Language: en
Country: US
--></g></svg>