<?xml version="1.0" encoding="UTF-8" standalone="no"?><svg xmlns="http://www.w3.org/2000/svg" xmlns:xlink="http://www.w3.org/1999/xlink" contentScriptType="application/ecmascript" contentStyleType="text/css" height="2829px" preserveAspectRatio="none" style="width:500px;height:2829px;" version="1.1" viewBox="0 0 500 2829" width="500px" zoomAndPan="magnify"><defs><filter height="300%" id="fdarxq1z2jk15" width="300%" x="-1" y="-1"><feGaussianBlur result="blurOut" stdDeviation="2.0"/><feColorMatrix in="blurOut" result="blurOut2" type="matrix" values="0 0 0 0 0 0 0 0 0 0 0 0 0 0 0 0 0 0 .4 0"/><feOffset dx="4.0" dy="4.0" in="blurOut2" result="blurOut3"/><feBlend in="SourceGraphic" in2="blurOut3" mode="normal"/></filter></defs><g><rect fill="#FFFFFF" filter="url(#fdarxq1z2jk15)" height="30.3516" style="stroke: #A80036; stroke-width: 1.0;" width="10" x="408.5" y="114.5703"/><rect fill="#FFFFFF" filter="url(#fdarxq1z2jk15)" height="30.3516" style="stroke: #A80036; stroke-width: 1.0;" width="10" x="408.5" y="200.2734"/><rect fill="#FFFFFF" filter="url(#fdarxq1z2jk15)" height="30.3516" style="stroke: #A80036; stroke-width: 1.0;" width="10" x="408.5" y="285.9766"/><rect fill="#FFFFFF" filter="url(#fdarxq1z2jk15)" height="30.3516" style="stroke: #A80036; stroke-width: 1.0;" width="10" x="408.5" y="371.6797"/><rect fill="#FFFFFF" filter="url(#fdarxq1z2jk15)" height="30.3516" style="stroke: #A80036; stroke-width: 1.0;" width="10" x="408.5" y="457.3828"/><rect fill="#FFFFFF" filter="url(#fdarxq1z2jk15)" height="30.3516" style="stroke: #A80036; stroke-width: 1.0;" width="10" x="408.5" y="575.4375"/><rect fill="#FFFFFF" filter="url(#fdarxq1z2jk15)" height="30.3516" style="stroke: #A80036; stroke-width: 1.0;" width="10" x="408.5" y="661.1406"/><rect fill="#FFFFFF" filter="url(#fdarxq1z2jk15)" height="30.3516" style="stroke: #A80036; stroke-width: 1.0;" width="10" x="408.5" y="746.8438"/><rect fill="#FFFFFF" filter="url(#fdarxq1z2jk15)" height="30.3516" style="stroke: #A80036; stroke-width: 1.0;" width="10" x="408.5" y="832.5469"/><rect fill="#FFFFFF" filter="url(#fdarxq1z2jk15)" height="30.3516" style="stroke: #A80036; stroke-width: 1.0;" width="10" x="408.5" y="918.25"/><rect fill="#FFFFFF" filter="url(#fdarxq1z2jk15)" height="30.3516" style="stroke: #A80036; stroke-width: 1.0;" width="10" x="408.5" y="1003.9531"/><rect fill="#FFFFFF" filter="url(#fdarxq1z2jk15)" height="30.3516" style="stroke: #A80036; stroke-width: 1.0;" width="10" x="408.5" y="1122.0078"/><rect fill="#FFFFFF" filter="url(#fdarxq1z2jk15)" height="30.3516" style="stroke: #A80036; stroke-width: 1.0;" width="10" x="408.5" y="1207.7109"/><rect fill="#FFFFFF" filter="url(#fdarxq1z2jk15)" height="30.3516" style="stroke: #A80036; stroke-width: 1.0;" width="10" x="408.5" y="1293.4141"/><rect fill="#FFFFFF" filter="url(#fdarxq1z2jk15)" height="30.3516" style="stroke: #A80036; stroke-width: 1.0;" width="10" x="408.5" y="1379.1172"/><rect fill="#FFFFFF" filter="url(#fdarxq1z2jk15)" height="30.3516" style="stroke: #A80036; stroke-width: 1.0;" width="10" x="408.5" y="1464.8203"/><rect fill="#FFFFFF" filter="url(#fdarxq1z2jk15)" height="30.3516" style="stroke: #A80036; stroke-width: 1.0;" width="10" x="408.5" y="1550.5234"/><rect fill="#FFFFFF" filter="url(#fdarxq1z2jk15)" height="30.3516" style="stroke: #A80036; stroke-width: 1.0;" width="10" x="408.5" y="1668.5781"/><rect fill="#FFFFFF" filter="url(#fdarxq1z2jk15)" height="30.3516" style="stroke: #A80036; stroke-width: 1.0;" width="10" x="408.5" y="1754.2813"/><rect fill="#FFFFFF" filter="url(#fdarxq1z2jk15)" height="30.3516" style="stroke: #A80036; stroke-width: 1.0;" width="10" x="408.5" y="1839.9844"/><rect fill="#FFFFFF" filter="url(#fdarxq1z2jk15)" height="30.3516" style="stroke: #A80036; stroke-width: 1.0;" width="10" x="408.5" y="1925.6875"/><rect fill="#FFFFFF" filter="url(#fdarxq1z2jk15)" height="30.3516" style="stroke: #A80036; stroke-width: 1.0;" width="10" x="408.5" y="2011.3906"/><rect fill="#FFFFFF" filter="url(#fdarxq1z2jk15)" height="30.3516" style="stroke: #A80036; stroke-width: 1.0;" width="10" x="408.5" y="2097.0938"/><rect fill="#FFFFFF" filter="url(#fdarxq1z2jk15)" height="30.3516" style="stroke: #A80036; stroke-width: 1.0;" width="10" x="408.5" y="2182.7969"/><rect fill="#FFFFFF" filter="url(#fdarxq1z2jk15)" height="30.3516" style="stroke: #A80036; stroke-width: 1.0;" width="10" x="408.5" y="2300.8516"/><rect fill="#FFFFFF" filter="url(#fdarxq1z2jk15)" height="30.3516" style="stroke: #A80036; stroke-width: 1.0;" width="10" x="408.5" y="2386.5547"/><rect fill="#FFFFFF" filter="url(#fdarxq1z2jk15)" height="30.3516" style="stroke: #A80036; stroke-width: 1.0;" width="10" x="408.5" y="2472.2578"/><rect fill="#FFFFFF" filter="url(#fdarxq1z2jk15)" height="30.3516" style="stroke: #A80036; stroke-width: 1.0;" width="10" x="408.5" y="2557.9609"/><rect fill="#FFFFFF" filter="url(#fdarxq1z2jk15)" height="30.3516" style="stroke: #A80036; stroke-width: 1.0;" width="10" x="408.5" y="2676.0156"/><rect fill="#FFFFFF" filter="url(#fdarxq1z2jk15)" height="30.3516" style="stroke: #A80036; stroke-width: 1.0;" width="10" x="408.5" y="2761.7188"/><rect fill="#FFFFFF" filter="url(#fdarxq1z2jk15)" height="421.8672" style="stroke: #000000; stroke-width: 2.0;" width="476" x="13" y="74.2188"/><rect fill="#FFFFFF" filter="url(#fdarxq1z2jk15)" height="507.5703" style="stroke: #000000; stroke-width: 2.0;" width="476" x="13" y="535.0859"/><rect fill="#FFFFFF" filter="url(#fdarxq1z2jk15)" height="507.5703" style="stroke: #000000; stroke-width: 2.0;" width="476" x="13" y="1081.6563"/><rect fill="#FFFFFF" filter="url(#fdarxq1z2jk15)" height="593.2734" style="stroke: #000000; stroke-width: 2.0;" width="476" x="13" y="1628.2266"/><rect fill="#FFFFFF" filter="url(#fdarxq1z2jk15)" height="336.1641" style="stroke: #000000; stroke-width: 2.0;" width="476" x="13" y="2260.5"/><rect fill="#FFFFFF" filter="url(#fdarxq1z2jk15)" height="164.7578" style="stroke: #000000; stroke-width: 2.0;" width="476" x="13" y="2635.6641"/><line style="stroke: #A80036; stroke-width: 1.0; stroke-dasharray: 5.0,5.0;" x1="88" x2="88" y1="57.2188" y2="2817.4219"/><line style="stroke: #A80036; stroke-width: 1.0; stroke-dasharray: 5.0,5.0;" x1="413" x2="413" y1="57.2188" y2="2817.4219"/><rect fill="#FEFECE" filter="url(#fdarxq1z2jk15)" height="49.2188" style="stroke: #A80036; stroke-width: 1.5;" width="127" x="23" y="3"/><text fill="#000000" font-family="sans-serif" font-size="14" lengthAdjust="spacingAndGlyphs" textLength="113" x="30" y="24.5332">Patient Encounter</text><text fill="#000000" font-family="sans-serif" font-size="14" lengthAdjust="spacingAndGlyphs" textLength="45" x="64" y="42.1426">Source</text><rect fill="#FEFECE" filter="url(#fdarxq1z2jk15)" height="49.2188" style="stroke: #A80036; stroke-width: 1.5;" width="127" x="348" y="3"/><text fill="#000000" font-family="sans-serif" font-size="14" lengthAdjust="spacingAndGlyphs" textLength="113" x="355" y="24.5332">Patient Encounter</text><text fill="#000000" font-family="sans-serif" font-size="14" lengthAdjust="spacingAndGlyphs" textLength="65" x="379" y="42.1426">Consumer</text><rect fill="#FFFFFF" filter="url(#fdarxq1z2jk15)" height="30.3516" style="stroke: #A80036; stroke-width: 1.0;" width="10" x="408.5" y="114.5703"/><rect fill="#FFFFFF" filter="url(#fdarxq1z2jk15)" height="30.3516" style="stroke: #A80036; stroke-width: 1.0;" width="10" x="408.5" y="200.2734"/><rect fill="#FFFFFF" filter="url(#fdarxq1z2jk15)" height="30.3516" style="stroke: #A80036; stroke-width: 1.0;" width="10" x="408.5" y="285.9766"/><rect fill="#FFFFFF" filter="url(#fdarxq1z2jk15)" height="30.3516" style="stroke: #A80036; stroke-width: 1.0;" width="10" x="408.5" y="371.6797"/><rect fill="#FFFFFF" filter="url(#fdarxq1z2jk15)" height="30.3516" style="stroke: #A80036; stroke-width: 1.0;" width="10" x="408.5" y="457.3828"/><rect fill="#FFFFFF" filter="url(#fdarxq1z2jk15)" height="30.3516" style="stroke: #A80036; stroke-width: 1.0;" width="10" x="408.5" y="575.4375"/><rect fill="#FFFFFF" filter="url(#fdarxq1z2jk15)" height="30.3516" style="stroke: #A80036; stroke-width: 1.0;" width="10" x="408.5" y="661.1406"/><rect fill="#FFFFFF" filter="url(#fdarxq1z2jk15)" height="30.3516" style="stroke: #A80036; stroke-width: 1.0;" width="10" x="408.5" y="746.8438"/><rect fill="#FFFFFF" filter="url(#fdarxq1z2jk15)" height="30.3516" style="stroke: #A80036; stroke-width: 1.0;" width="10" x="408.5" y="832.5469"/><rect fill="#FFFFFF" filter="url(#fdarxq1z2jk15)" height="30.3516" style="stroke: #A80036; stroke-width: 1.0;" width="10" x="408.5" y="918.25"/><rect fill="#FFFFFF" filter="url(#fdarxq1z2jk15)" height="30.3516" style="stroke: #A80036; stroke-width: 1.0;" width="10" x="408.5" y="1003.9531"/><rect fill="#FFFFFF" filter="url(#fdarxq1z2jk15)" height="30.3516" style="stroke: #A80036; stroke-width: 1.0;" width="10" x="408.5" y="1122.0078"/><rect fill="#FFFFFF" filter="url(#fdarxq1z2jk15)" height="30.3516" style="stroke: #A80036; stroke-width: 1.0;" width="10" x="408.5" y="1207.7109"/><rect fill="#FFFFFF" filter="url(#fdarxq1z2jk15)" height="30.3516" style="stroke: #A80036; stroke-width: 1.0;" width="10" x="408.5" y="1293.4141"/><rect fill="#FFFFFF" filter="url(#fdarxq1z2jk15)" height="30.3516" style="stroke: #A80036; stroke-width: 1.0;" width="10" x="408.5" y="1379.1172"/><rect fill="#FFFFFF" filter="url(#fdarxq1z2jk15)" height="30.3516" style="stroke: #A80036; stroke-width: 1.0;" width="10" x="408.5" y="1464.8203"/><rect fill="#FFFFFF" filter="url(#fdarxq1z2jk15)" height="30.3516" style="stroke: #A80036; stroke-width: 1.0;" width="10" x="408.5" y="1550.5234"/><rect fill="#FFFFFF" filter="url(#fdarxq1z2jk15)" height="30.3516" style="stroke: #A80036; stroke-width: 1.0;" width="10" x="408.5" y="1668.5781"/><rect fill="#FFFFFF" filter="url(#fdarxq1z2jk15)" height="30.3516" style="stroke: #A80036; stroke-width: 1.0;" width="10" x="408.5" y="1754.2813"/><rect fill="#FFFFFF" filter="url(#fdarxq1z2jk15)" height="30.3516" style="stroke: #A80036; stroke-width: 1.0;" width="10" x="408.5" y="1839.9844"/><rect fill="#FFFFFF" filter="url(#fdarxq1z2jk15)" height="30.3516" style="stroke: #A80036; stroke-width: 1.0;" width="10" x="408.5" y="1925.6875"/><rect fill="#FFFFFF" filter="url(#fdarxq1z2jk15)" height="30.3516" style="stroke: #A80036; stroke-width: 1.0;" width="10" x="408.5" y="2011.3906"/><rect fill="#FFFFFF" filter="url(#fdarxq1z2jk15)" height="30.3516" style="stroke: #A80036; stroke-width: 1.0;" width="10" x="408.5" y="2097.0938"/><rect fill="#FFFFFF" filter="url(#fdarxq1z2jk15)" height="30.3516" style="stroke: #A80036; stroke-width: 1.0;" width="10" x="408.5" y="2182.7969"/><rect fill="#FFFFFF" filter="url(#fdarxq1z2jk15)" height="30.3516" style="stroke: #A80036; stroke-width: 1.0;" width="10" x="408.5" y="2300.8516"/><rect fill="#FFFFFF" filter="url(#fdarxq1z2jk15)" height="30.3516" style="stroke: #A80036; stroke-width: 1.0;" width="10" x="408.5" y="2386.5547"/><rect fill="#FFFFFF" filter="url(#fdarxq1z2jk15)" height="30.3516" style="stroke: #A80036; stroke-width: 1.0;" width="10" x="408.5" y="2472.2578"/><rect fill="#FFFFFF" filter="url(#fdarxq1z2jk15)" height="30.3516" style="stroke: #A80036; stroke-width: 1.0;" width="10" x="408.5" y="2557.9609"/><rect fill="#FFFFFF" filter="url(#fdarxq1z2jk15)" height="30.3516" style="stroke: #A80036; stroke-width: 1.0;" width="10" x="408.5" y="2676.0156"/><rect fill="#FFFFFF" filter="url(#fdarxq1z2jk15)" height="30.3516" style="stroke: #A80036; stroke-width: 1.0;" width="10" x="408.5" y="2761.7188"/><path d="M13,74.2188 L218,74.2188 L218,82.2188 L208,92.2188 L13,92.2188 L13,74.2188 " fill="#EEEEEE" style="stroke: #000000; stroke-width: 1.0;"/><rect fill="none" height="421.8672" style="stroke: #000000; stroke-width: 2.0;" width="476" x="13" y="74.2188"/><text fill="#000000" font-family="sans-serif" font-size="13" font-weight="bold" lengthAdjust="spacingAndGlyphs" textLength="160" x="28" y="88.7139">Basic Option (mandatory)</text><polygon fill="#A80036" points="396.5,110.5703,406.5,114.5703,396.5,118.5703,400.5,114.5703" style="stroke: #A80036; stroke-width: 1.0;"/><line style="stroke: #A80036; stroke-width: 1.0;" x1="88.5" x2="402.5" y1="114.5703" y2="114.5703"/><text fill="#000000" font-family="sans-serif" font-size="13" lengthAdjust="spacingAndGlyphs" textLength="171" x="95.5" y="110.0654">Admit Inpatient HL7 ADT^A01</text><polygon fill="#A80036" points="99.5,140.9219,89.5,144.9219,99.5,148.9219,95.5,144.9219" style="stroke: #A80036; stroke-width: 1.0;"/><line style="stroke: #A80036; stroke-width: 1.0; stroke-dasharray: 2.0,2.0;" x1="93.5" x2="412.5" y1="144.9219" y2="144.9219"/><text fill="#000000" font-family="sans-serif" font-size="13" lengthAdjust="spacingAndGlyphs" textLength="165" x="105.5" y="140.417">Acknowledge HL7 ADT^ACK</text><polygon fill="#A80036" points="396.5,196.2734,406.5,200.2734,396.5,204.2734,400.5,200.2734" style="stroke: #A80036; stroke-width: 1.0;"/><line style="stroke: #A80036; stroke-width: 1.0;" x1="88.5" x2="402.5" y1="200.2734" y2="200.2734"/><text fill="#000000" font-family="sans-serif" font-size="13" lengthAdjust="spacingAndGlyphs" textLength="187" x="95.5" y="195.7686">Discharge Patient HL7 ADT^A03</text><polygon fill="#A80036" points="99.5,226.625,89.5,230.625,99.5,234.625,95.5,230.625" style="stroke: #A80036; stroke-width: 1.0;"/><line style="stroke: #A80036; stroke-width: 1.0; stroke-dasharray: 2.0,2.0;" x1="93.5" x2="412.5" y1="230.625" y2="230.625"/><text fill="#000000" font-family="sans-serif" font-size="13" lengthAdjust="spacingAndGlyphs" textLength="165" x="105.5" y="226.1201">Acknowledge HL7 ADT^ACK</text><polygon fill="#A80036" points="396.5,281.9766,406.5,285.9766,396.5,289.9766,400.5,285.9766" style="stroke: #A80036; stroke-width: 1.0;"/><line style="stroke: #A80036; stroke-width: 1.0;" x1="88.5" x2="402.5" y1="285.9766" y2="285.9766"/><text fill="#000000" font-family="sans-serif" font-size="13" lengthAdjust="spacingAndGlyphs" textLength="196" x="95.5" y="281.4717">Register Outpatient HL7 ADT^A04</text><polygon fill="#A80036" points="99.5,312.3281,89.5,316.3281,99.5,320.3281,95.5,316.3281" style="stroke: #A80036; stroke-width: 1.0;"/><line style="stroke: #A80036; stroke-width: 1.0; stroke-dasharray: 2.0,2.0;" x1="93.5" x2="412.5" y1="316.3281" y2="316.3281"/><text fill="#000000" font-family="sans-serif" font-size="13" lengthAdjust="spacingAndGlyphs" textLength="165" x="105.5" y="311.8232">Acknowledge HL7 ADT^ACK</text><polygon fill="#A80036" points="396.5,367.6797,406.5,371.6797,396.5,375.6797,400.5,371.6797" style="stroke: #A80036; stroke-width: 1.0;"/><line style="stroke: #A80036; stroke-width: 1.0;" x1="88.5" x2="402.5" y1="371.6797" y2="371.6797"/><text fill="#000000" font-family="sans-serif" font-size="13" lengthAdjust="spacingAndGlyphs" textLength="192" x="95.5" y="367.1748">Cancel Admit/Visit HL7 ADT^A11</text><polygon fill="#A80036" points="99.5,398.0313,89.5,402.0313,99.5,406.0313,95.5,402.0313" style="stroke: #A80036; stroke-width: 1.0;"/><line style="stroke: #A80036; stroke-width: 1.0; stroke-dasharray: 2.0,2.0;" x1="93.5" x2="412.5" y1="402.0313" y2="402.0313"/><text fill="#000000" font-family="sans-serif" font-size="13" lengthAdjust="spacingAndGlyphs" textLength="165" x="105.5" y="397.5264">Acknowledge HL7 ADT^ACK</text><polygon fill="#A80036" points="396.5,453.3828,406.5,457.3828,396.5,461.3828,400.5,457.3828" style="stroke: #A80036; stroke-width: 1.0;"/><line style="stroke: #A80036; stroke-width: 1.0;" x1="88.5" x2="402.5" y1="457.3828" y2="457.3828"/><text fill="#000000" font-family="sans-serif" font-size="13" lengthAdjust="spacingAndGlyphs" textLength="186" x="95.5" y="452.8779">Cancel Discharge HL7 ADT^A13</text><polygon fill="#A80036" points="99.5,483.7344,89.5,487.7344,99.5,491.7344,95.5,487.7344" style="stroke: #A80036; stroke-width: 1.0;"/><line style="stroke: #A80036; stroke-width: 1.0; stroke-dasharray: 2.0,2.0;" x1="93.5" x2="412.5" y1="487.7344" y2="487.7344"/><text fill="#000000" font-family="sans-serif" font-size="13" lengthAdjust="spacingAndGlyphs" textLength="165" x="105.5" y="483.2295">Acknowledge HL7 ADT^ACK</text><path d="M13,535.0859 L416,535.0859 L416,543.0859 L406,553.0859 L13,553.0859 L13,535.0859 " fill="#EEEEEE" style="stroke: #000000; stroke-width: 1.0;"/><rect fill="none" height="507.5703" style="stroke: #000000; stroke-width: 2.0;" width="476" x="13" y="535.0859"/><text fill="#000000" font-family="sans-serif" font-size="13" font-weight="bold" lengthAdjust="spacingAndGlyphs" textLength="358" x="28" y="549.5811">Inpatient/Outpatient Encounter Management Option only</text><polygon fill="#A80036" points="396.5,571.4375,406.5,575.4375,396.5,579.4375,400.5,575.4375" style="stroke: #A80036; stroke-width: 1.0;"/><line style="stroke: #A80036; stroke-width: 1.0;" x1="88.5" x2="402.5" y1="575.4375" y2="575.4375"/><text fill="#000000" font-family="sans-serif" font-size="13" lengthAdjust="spacingAndGlyphs" textLength="189" x="95.5" y="570.9326">Preadmit Inpatient HL7 ADT^A05</text><polygon fill="#A80036" points="99.5,601.7891,89.5,605.7891,99.5,609.7891,95.5,605.7891" style="stroke: #A80036; stroke-width: 1.0;"/><line style="stroke: #A80036; stroke-width: 1.0; stroke-dasharray: 2.0,2.0;" x1="93.5" x2="412.5" y1="605.7891" y2="605.7891"/><text fill="#000000" font-family="sans-serif" font-size="13" lengthAdjust="spacingAndGlyphs" textLength="165" x="105.5" y="601.2842">Acknowledge HL7 ADT^ACK</text><polygon fill="#A80036" points="396.5,657.1406,406.5,661.1406,396.5,665.1406,400.5,661.1406" style="stroke: #A80036; stroke-width: 1.0;"/><line style="stroke: #A80036; stroke-width: 1.0;" x1="88.5" x2="402.5" y1="661.1406" y2="661.1406"/><text fill="#000000" font-family="sans-serif" font-size="13" lengthAdjust="spacingAndGlyphs" textLength="180" x="95.5" y="656.6357">Cancel Preadmit HL7 ADT^A38</text><polygon fill="#A80036" points="99.5,687.4922,89.5,691.4922,99.5,695.4922,95.5,691.4922" style="stroke: #A80036; stroke-width: 1.0;"/><line style="stroke: #A80036; stroke-width: 1.0; stroke-dasharray: 2.0,2.0;" x1="93.5" x2="412.5" y1="691.4922" y2="691.4922"/><text fill="#000000" font-family="sans-serif" font-size="13" lengthAdjust="spacingAndGlyphs" textLength="165" x="105.5" y="686.9873">Acknowledge HL7 ADT^ACK</text><polygon fill="#A80036" points="396.5,742.8438,406.5,746.8438,396.5,750.8438,400.5,746.8438" style="stroke: #A80036; stroke-width: 1.0;"/><line style="stroke: #A80036; stroke-width: 1.0;" x1="88.5" x2="402.5" y1="746.8438" y2="746.8438"/><text fill="#000000" font-family="sans-serif" font-size="13" lengthAdjust="spacingAndGlyphs" textLength="196" x="95.5" y="742.3389">Change to Inpatient HL7 ADT^A06</text><polygon fill="#A80036" points="99.5,773.1953,89.5,777.1953,99.5,781.1953,95.5,777.1953" style="stroke: #A80036; stroke-width: 1.0;"/><line style="stroke: #A80036; stroke-width: 1.0; stroke-dasharray: 2.0,2.0;" x1="93.5" x2="412.5" y1="777.1953" y2="777.1953"/><text fill="#000000" font-family="sans-serif" font-size="13" lengthAdjust="spacingAndGlyphs" textLength="165" x="105.5" y="772.6904">Acknowledge HL7 ADT^ACK</text><polygon fill="#A80036" points="396.5,828.5469,406.5,832.5469,396.5,836.5469,400.5,832.5469" style="stroke: #A80036; stroke-width: 1.0;"/><line style="stroke: #A80036; stroke-width: 1.0;" x1="88.5" x2="402.5" y1="832.5469" y2="832.5469"/><text fill="#000000" font-family="sans-serif" font-size="13" lengthAdjust="spacingAndGlyphs" textLength="207" x="95.5" y="828.042">Change to Outpatient HL7 ADT^A07</text><polygon fill="#A80036" points="99.5,858.8984,89.5,862.8984,99.5,866.8984,95.5,862.8984" style="stroke: #A80036; stroke-width: 1.0;"/><line style="stroke: #A80036; stroke-width: 1.0; stroke-dasharray: 2.0,2.0;" x1="93.5" x2="412.5" y1="862.8984" y2="862.8984"/><text fill="#000000" font-family="sans-serif" font-size="13" lengthAdjust="spacingAndGlyphs" textLength="165" x="105.5" y="858.3936">Acknowledge HL7 ADT^ACK</text><polygon fill="#A80036" points="396.5,914.25,406.5,918.25,396.5,922.25,400.5,918.25" style="stroke: #A80036; stroke-width: 1.0;"/><line style="stroke: #A80036; stroke-width: 1.0;" x1="88.5" x2="402.5" y1="918.25" y2="918.25"/><text fill="#000000" font-family="sans-serif" font-size="13" lengthAdjust="spacingAndGlyphs" textLength="175" x="95.5" y="913.7451">Transfer Patient HL7 ADT^A02</text><polygon fill="#A80036" points="99.5,944.6016,89.5,948.6016,99.5,952.6016,95.5,948.6016" style="stroke: #A80036; stroke-width: 1.0;"/><line style="stroke: #A80036; stroke-width: 1.0; stroke-dasharray: 2.0,2.0;" x1="93.5" x2="412.5" y1="948.6016" y2="948.6016"/><text fill="#000000" font-family="sans-serif" font-size="13" lengthAdjust="spacingAndGlyphs" textLength="165" x="105.5" y="944.0967">Acknowledge HL7 ADT^ACK</text><polygon fill="#A80036" points="396.5,999.9531,406.5,1003.9531,396.5,1007.9531,400.5,1003.9531" style="stroke: #A80036; stroke-width: 1.0;"/><line style="stroke: #A80036; stroke-width: 1.0;" x1="88.5" x2="402.5" y1="1003.9531" y2="1003.9531"/><text fill="#000000" font-family="sans-serif" font-size="13" lengthAdjust="spacingAndGlyphs" textLength="219" x="95.5" y="999.4482">Cancel Patient Transfer HL7 ADT^A12</text><polygon fill="#A80036" points="99.5,1030.3047,89.5,1034.3047,99.5,1038.3047,95.5,1034.3047" style="stroke: #A80036; stroke-width: 1.0;"/><line style="stroke: #A80036; stroke-width: 1.0; stroke-dasharray: 2.0,2.0;" x1="93.5" x2="412.5" y1="1034.3047" y2="1034.3047"/><text fill="#000000" font-family="sans-serif" font-size="13" lengthAdjust="spacingAndGlyphs" textLength="165" x="105.5" y="1029.7998">Acknowledge HL7 ADT^ACK</text><path d="M13,1081.6563 L314,1081.6563 L314,1089.6563 L304,1099.6563 L13,1099.6563 L13,1081.6563 " fill="#EEEEEE" style="stroke: #000000; stroke-width: 1.0;"/><rect fill="none" height="507.5703" style="stroke: #000000; stroke-width: 2.0;" width="476" x="13" y="1081.6563"/><text fill="#000000" font-family="sans-serif" font-size="13" font-weight="bold" lengthAdjust="spacingAndGlyphs" textLength="256" x="28" y="1096.1514">Pending Event Management Option only</text><polygon fill="#A80036" points="396.5,1118.0078,406.5,1122.0078,396.5,1126.0078,400.5,1122.0078" style="stroke: #A80036; stroke-width: 1.0;"/><line style="stroke: #A80036; stroke-width: 1.0;" x1="88.5" x2="402.5" y1="1122.0078" y2="1122.0078"/><text fill="#000000" font-family="sans-serif" font-size="13" lengthAdjust="spacingAndGlyphs" textLength="254" x="95.5" y="1117.5029">Pending Admit of an Inpatient HL7 ADT^A14</text><polygon fill="#A80036" points="99.5,1148.3594,89.5,1152.3594,99.5,1156.3594,95.5,1152.3594" style="stroke: #A80036; stroke-width: 1.0;"/><line style="stroke: #A80036; stroke-width: 1.0; stroke-dasharray: 2.0,2.0;" x1="93.5" x2="412.5" y1="1152.3594" y2="1152.3594"/><text fill="#000000" font-family="sans-serif" font-size="13" lengthAdjust="spacingAndGlyphs" textLength="165" x="105.5" y="1147.8545">Acknowledge HL7 ADT^ACK</text><polygon fill="#A80036" points="396.5,1203.7109,406.5,1207.7109,396.5,1211.7109,400.5,1207.7109" style="stroke: #A80036; stroke-width: 1.0;"/><line style="stroke: #A80036; stroke-width: 1.0;" x1="88.5" x2="402.5" y1="1207.7109" y2="1207.7109"/><text fill="#000000" font-family="sans-serif" font-size="13" lengthAdjust="spacingAndGlyphs" textLength="213" x="95.5" y="1203.2061">Cancel Pending Admit HL7 ADT^A27</text><polygon fill="#A80036" points="99.5,1234.0625,89.5,1238.0625,99.5,1242.0625,95.5,1238.0625" style="stroke: #A80036; stroke-width: 1.0;"/><line style="stroke: #A80036; stroke-width: 1.0; stroke-dasharray: 2.0,2.0;" x1="93.5" x2="412.5" y1="1238.0625" y2="1238.0625"/><text fill="#000000" font-family="sans-serif" font-size="13" lengthAdjust="spacingAndGlyphs" textLength="165" x="105.5" y="1233.5576">Acknowledge HL7 ADT^ACK</text><polygon fill="#A80036" points="396.5,1289.4141,406.5,1293.4141,396.5,1297.4141,400.5,1293.4141" style="stroke: #A80036; stroke-width: 1.0;"/><line style="stroke: #A80036; stroke-width: 1.0;" x1="88.5" x2="402.5" y1="1293.4141" y2="1293.4141"/><text fill="#000000" font-family="sans-serif" font-size="13" lengthAdjust="spacingAndGlyphs" textLength="181" x="95.5" y="1288.9092">Pending Transfer HL7 ADT^A15</text><polygon fill="#A80036" points="99.5,1319.7656,89.5,1323.7656,99.5,1327.7656,95.5,1323.7656" style="stroke: #A80036; stroke-width: 1.0;"/><line style="stroke: #A80036; stroke-width: 1.0; stroke-dasharray: 2.0,2.0;" x1="93.5" x2="412.5" y1="1323.7656" y2="1323.7656"/><text fill="#000000" font-family="sans-serif" font-size="13" lengthAdjust="spacingAndGlyphs" textLength="165" x="105.5" y="1319.2607">Acknowledge HL7 ADT^ACK</text><polygon fill="#A80036" points="396.5,1375.1172,406.5,1379.1172,396.5,1383.1172,400.5,1379.1172" style="stroke: #A80036; stroke-width: 1.0;"/><line style="stroke: #A80036; stroke-width: 1.0;" x1="88.5" x2="402.5" y1="1379.1172" y2="1379.1172"/><text fill="#000000" font-family="sans-serif" font-size="13" lengthAdjust="spacingAndGlyphs" textLength="225" x="95.5" y="1374.6123">Cancel Pending Transfer HL7 ADT^A26</text><polygon fill="#A80036" points="99.5,1405.4688,89.5,1409.4688,99.5,1413.4688,95.5,1409.4688" style="stroke: #A80036; stroke-width: 1.0;"/><line style="stroke: #A80036; stroke-width: 1.0; stroke-dasharray: 2.0,2.0;" x1="93.5" x2="412.5" y1="1409.4688" y2="1409.4688"/><text fill="#000000" font-family="sans-serif" font-size="13" lengthAdjust="spacingAndGlyphs" textLength="165" x="105.5" y="1404.9639">Acknowledge HL7 ADT^ACK</text><polygon fill="#A80036" points="396.5,1460.8203,406.5,1464.8203,396.5,1468.8203,400.5,1464.8203" style="stroke: #A80036; stroke-width: 1.0;"/><line style="stroke: #A80036; stroke-width: 1.0;" x1="88.5" x2="402.5" y1="1464.8203" y2="1464.8203"/><text fill="#000000" font-family="sans-serif" font-size="13" lengthAdjust="spacingAndGlyphs" textLength="193" x="95.5" y="1460.3154">Pending Discharge HL7 ADT^A16</text><polygon fill="#A80036" points="99.5,1491.1719,89.5,1495.1719,99.5,1499.1719,95.5,1495.1719" style="stroke: #A80036; stroke-width: 1.0;"/><line style="stroke: #A80036; stroke-width: 1.0; stroke-dasharray: 2.0,2.0;" x1="93.5" x2="412.5" y1="1495.1719" y2="1495.1719"/><text fill="#000000" font-family="sans-serif" font-size="13" lengthAdjust="spacingAndGlyphs" textLength="165" x="105.5" y="1490.667">Acknowledge HL7 ADT^ACK</text><polygon fill="#A80036" points="396.5,1546.5234,406.5,1550.5234,396.5,1554.5234,400.5,1550.5234" style="stroke: #A80036; stroke-width: 1.0;"/><line style="stroke: #A80036; stroke-width: 1.0;" x1="88.5" x2="402.5" y1="1550.5234" y2="1550.5234"/><text fill="#000000" font-family="sans-serif" font-size="13" lengthAdjust="spacingAndGlyphs" textLength="237" x="95.5" y="1546.0186">Cancel Pending Discharge HL7 ADT^A25</text><polygon fill="#A80036" points="99.5,1576.875,89.5,1580.875,99.5,1584.875,95.5,1580.875" style="stroke: #A80036; stroke-width: 1.0;"/><line style="stroke: #A80036; stroke-width: 1.0; stroke-dasharray: 2.0,2.0;" x1="93.5" x2="412.5" y1="1580.875" y2="1580.875"/><text fill="#000000" font-family="sans-serif" font-size="13" lengthAdjust="spacingAndGlyphs" textLength="165" x="105.5" y="1576.3701">Acknowledge HL7 ADT^ACK</text><path d="M13,1628.2266 L353,1628.2266 L353,1636.2266 L343,1646.2266 L13,1646.2266 L13,1628.2266 " fill="#EEEEEE" style="stroke: #000000; stroke-width: 1.0;"/><rect fill="none" height="593.2734" style="stroke: #000000; stroke-width: 2.0;" width="476" x="13" y="1628.2266"/><text fill="#000000" font-family="sans-serif" font-size="13" font-weight="bold" lengthAdjust="spacingAndGlyphs" textLength="295" x="28" y="1642.7217">Advanced Encounter Management Option only</text><polygon fill="#A80036" points="396.5,1664.5781,406.5,1668.5781,396.5,1672.5781,400.5,1668.5781" style="stroke: #A80036; stroke-width: 1.0;"/><line style="stroke: #A80036; stroke-width: 1.0;" x1="88.5" x2="402.5" y1="1668.5781" y2="1668.5781"/><text fill="#000000" font-family="sans-serif" font-size="13" lengthAdjust="spacingAndGlyphs" textLength="229" x="95.5" y="1664.0732">Change Attending Doctor HL7 ADT^A54</text><polygon fill="#A80036" points="99.5,1694.9297,89.5,1698.9297,99.5,1702.9297,95.5,1698.9297" style="stroke: #A80036; stroke-width: 1.0;"/><line style="stroke: #A80036; stroke-width: 1.0; stroke-dasharray: 2.0,2.0;" x1="93.5" x2="412.5" y1="1698.9297" y2="1698.9297"/><text fill="#000000" font-family="sans-serif" font-size="13" lengthAdjust="spacingAndGlyphs" textLength="165" x="105.5" y="1694.4248">Acknowledge HL7 ADT^ACK</text><polygon fill="#A80036" points="396.5,1750.2813,406.5,1754.2813,396.5,1758.2813,400.5,1754.2813" style="stroke: #A80036; stroke-width: 1.0;"/><line style="stroke: #A80036; stroke-width: 1.0;" x1="88.5" x2="402.5" y1="1754.2813" y2="1754.2813"/><text fill="#000000" font-family="sans-serif" font-size="13" lengthAdjust="spacingAndGlyphs" textLength="273" x="95.5" y="1749.7764">Cancel Change Attending Doctor HL7 ADT^A55</text><polygon fill="#A80036" points="99.5,1780.6328,89.5,1784.6328,99.5,1788.6328,95.5,1784.6328" style="stroke: #A80036; stroke-width: 1.0;"/><line style="stroke: #A80036; stroke-width: 1.0; stroke-dasharray: 2.0,2.0;" x1="93.5" x2="412.5" y1="1784.6328" y2="1784.6328"/><text fill="#000000" font-family="sans-serif" font-size="13" lengthAdjust="spacingAndGlyphs" textLength="165" x="105.5" y="1780.1279">Acknowledge HL7 ADT^ACK</text><polygon fill="#A80036" points="396.5,1835.9844,406.5,1839.9844,396.5,1843.9844,400.5,1839.9844" style="stroke: #A80036; stroke-width: 1.0;"/><line style="stroke: #A80036; stroke-width: 1.0;" x1="88.5" x2="402.5" y1="1839.9844" y2="1839.9844"/><text fill="#000000" font-family="sans-serif" font-size="13" lengthAdjust="spacingAndGlyphs" textLength="186" x="95.5" y="1835.4795">Leave of Absence HL7 ADT^A21</text><polygon fill="#A80036" points="99.5,1866.3359,89.5,1870.3359,99.5,1874.3359,95.5,1870.3359" style="stroke: #A80036; stroke-width: 1.0;"/><line style="stroke: #A80036; stroke-width: 1.0; stroke-dasharray: 2.0,2.0;" x1="93.5" x2="412.5" y1="1870.3359" y2="1870.3359"/><text fill="#000000" font-family="sans-serif" font-size="13" lengthAdjust="spacingAndGlyphs" textLength="165" x="105.5" y="1865.8311">Acknowledge HL7 ADT^ACK</text><polygon fill="#A80036" points="396.5,1921.6875,406.5,1925.6875,396.5,1929.6875,400.5,1925.6875" style="stroke: #A80036; stroke-width: 1.0;"/><line style="stroke: #A80036; stroke-width: 1.0;" x1="88.5" x2="402.5" y1="1925.6875" y2="1925.6875"/><text fill="#000000" font-family="sans-serif" font-size="13" lengthAdjust="spacingAndGlyphs" textLength="230" x="95.5" y="1921.1826">Cancel Leave of Absence HL7 ADT^A52</text><polygon fill="#A80036" points="99.5,1952.0391,89.5,1956.0391,99.5,1960.0391,95.5,1956.0391" style="stroke: #A80036; stroke-width: 1.0;"/><line style="stroke: #A80036; stroke-width: 1.0; stroke-dasharray: 2.0,2.0;" x1="93.5" x2="412.5" y1="1956.0391" y2="1956.0391"/><text fill="#000000" font-family="sans-serif" font-size="13" lengthAdjust="spacingAndGlyphs" textLength="165" x="105.5" y="1951.5342">Acknowledge HL7 ADT^ACK</text><polygon fill="#A80036" points="396.5,2007.3906,406.5,2011.3906,396.5,2015.3906,400.5,2011.3906" style="stroke: #A80036; stroke-width: 1.0;"/><line style="stroke: #A80036; stroke-width: 1.0;" x1="88.5" x2="402.5" y1="2011.3906" y2="2011.3906"/><text fill="#000000" font-family="sans-serif" font-size="13" lengthAdjust="spacingAndGlyphs" textLength="257" x="95.5" y="2006.8857">Return from Leave of Absence HL7 ADT^A22</text><polygon fill="#A80036" points="99.5,2037.7422,89.5,2041.7422,99.5,2045.7422,95.5,2041.7422" style="stroke: #A80036; stroke-width: 1.0;"/><line style="stroke: #A80036; stroke-width: 1.0; stroke-dasharray: 2.0,2.0;" x1="93.5" x2="412.5" y1="2041.7422" y2="2041.7422"/><text fill="#000000" font-family="sans-serif" font-size="13" lengthAdjust="spacingAndGlyphs" textLength="165" x="105.5" y="2037.2373">Acknowledge HL7 ADT^ACK</text><polygon fill="#A80036" points="396.5,2093.0938,406.5,2097.0938,396.5,2101.0938,400.5,2097.0938" style="stroke: #A80036; stroke-width: 1.0;"/><line style="stroke: #A80036; stroke-width: 1.0;" x1="88.5" x2="402.5" y1="2097.0938" y2="2097.0938"/><text fill="#000000" font-family="sans-serif" font-size="13" lengthAdjust="spacingAndGlyphs" textLength="301" x="95.5" y="2092.5889">Cancel Return from Leave of Absence HL7 ADT^A53</text><polygon fill="#A80036" points="99.5,2123.4453,89.5,2127.4453,99.5,2131.4453,95.5,2127.4453" style="stroke: #A80036; stroke-width: 1.0;"/><line style="stroke: #A80036; stroke-width: 1.0; stroke-dasharray: 2.0,2.0;" x1="93.5" x2="412.5" y1="2127.4453" y2="2127.4453"/><text fill="#000000" font-family="sans-serif" font-size="13" lengthAdjust="spacingAndGlyphs" textLength="165" x="105.5" y="2122.9404">Acknowledge HL7 ADT^ACK</text><polygon fill="#A80036" points="396.5,2178.7969,406.5,2182.7969,396.5,2186.7969,400.5,2182.7969" style="stroke: #A80036; stroke-width: 1.0;"/><line style="stroke: #A80036; stroke-width: 1.0;" x1="88.5" x2="402.5" y1="2182.7969" y2="2182.7969"/><text fill="#000000" font-family="sans-serif" font-size="13" lengthAdjust="spacingAndGlyphs" textLength="233" x="95.5" y="2178.292">Move Account Information HL7 ADT^A44</text><polygon fill="#A80036" points="99.5,2209.1484,89.5,2213.1484,99.5,2217.1484,95.5,2213.1484" style="stroke: #A80036; stroke-width: 1.0;"/><line style="stroke: #A80036; stroke-width: 1.0; stroke-dasharray: 2.0,2.0;" x1="93.5" x2="412.5" y1="2213.1484" y2="2213.1484"/><text fill="#000000" font-family="sans-serif" font-size="13" lengthAdjust="spacingAndGlyphs" textLength="165" x="105.5" y="2208.6436">Acknowledge HL7 ADT^ACK</text><path d="M13,2260.5 L374,2260.5 L374,2268.5 L364,2278.5 L13,2278.5 L13,2260.5 " fill="#EEEEEE" style="stroke: #000000; stroke-width: 1.0;"/><rect fill="none" height="336.1641" style="stroke: #000000; stroke-width: 2.0;" width="476" x="13" y="2260.5"/><text fill="#000000" font-family="sans-serif" font-size="13" font-weight="bold" lengthAdjust="spacingAndGlyphs" textLength="316" x="28" y="2274.9951">Temporary Patient Transfers Tracking Option only</text><polygon fill="#A80036" points="396.5,2296.8516,406.5,2300.8516,396.5,2304.8516,400.5,2300.8516" style="stroke: #A80036; stroke-width: 1.0;"/><line style="stroke: #A80036; stroke-width: 1.0;" x1="88.5" x2="402.5" y1="2300.8516" y2="2300.8516"/><text fill="#000000" font-family="sans-serif" font-size="13" lengthAdjust="spacingAndGlyphs" textLength="241" x="95.5" y="2296.3467">Patient Departing, Tracking HL7 ADT^A09</text><polygon fill="#A80036" points="99.5,2327.2031,89.5,2331.2031,99.5,2335.2031,95.5,2331.2031" style="stroke: #A80036; stroke-width: 1.0;"/><line style="stroke: #A80036; stroke-width: 1.0; stroke-dasharray: 2.0,2.0;" x1="93.5" x2="412.5" y1="2331.2031" y2="2331.2031"/><text fill="#000000" font-family="sans-serif" font-size="13" lengthAdjust="spacingAndGlyphs" textLength="165" x="105.5" y="2326.6982">Acknowledge HL7 ADT^ACK</text><polygon fill="#A80036" points="396.5,2382.5547,406.5,2386.5547,396.5,2390.5547,400.5,2386.5547" style="stroke: #A80036; stroke-width: 1.0;"/><line style="stroke: #A80036; stroke-width: 1.0;" x1="88.5" x2="402.5" y1="2386.5547" y2="2386.5547"/><text fill="#000000" font-family="sans-serif" font-size="13" lengthAdjust="spacingAndGlyphs" textLength="228" x="95.5" y="2382.0498">Patient Arriving, Tracking HL7 ADT^A55</text><polygon fill="#A80036" points="99.5,2412.9063,89.5,2416.9063,99.5,2420.9063,95.5,2416.9063" style="stroke: #A80036; stroke-width: 1.0;"/><line style="stroke: #A80036; stroke-width: 1.0; stroke-dasharray: 2.0,2.0;" x1="93.5" x2="412.5" y1="2416.9063" y2="2416.9063"/><text fill="#000000" font-family="sans-serif" font-size="13" lengthAdjust="spacingAndGlyphs" textLength="165" x="105.5" y="2412.4014">Acknowledge HL7 ADT^ACK</text><polygon fill="#A80036" points="396.5,2468.2578,406.5,2472.2578,396.5,2476.2578,400.5,2472.2578" style="stroke: #A80036; stroke-width: 1.0;"/><line style="stroke: #A80036; stroke-width: 1.0;" x1="88.5" x2="402.5" y1="2472.2578" y2="2472.2578"/><text fill="#000000" font-family="sans-serif" font-size="13" lengthAdjust="spacingAndGlyphs" textLength="285" x="95.5" y="2467.7529">Cancel Patient Departing, Tracking HL7 ADT^A33</text><polygon fill="#A80036" points="99.5,2498.6094,89.5,2502.6094,99.5,2506.6094,95.5,2502.6094" style="stroke: #A80036; stroke-width: 1.0;"/><line style="stroke: #A80036; stroke-width: 1.0; stroke-dasharray: 2.0,2.0;" x1="93.5" x2="412.5" y1="2502.6094" y2="2502.6094"/><text fill="#000000" font-family="sans-serif" font-size="13" lengthAdjust="spacingAndGlyphs" textLength="165" x="105.5" y="2498.1045">Acknowledge HL7 ADT^ACK</text><polygon fill="#A80036" points="396.5,2553.9609,406.5,2557.9609,396.5,2561.9609,400.5,2557.9609" style="stroke: #A80036; stroke-width: 1.0;"/><line style="stroke: #A80036; stroke-width: 1.0;" x1="88.5" x2="402.5" y1="2557.9609" y2="2557.9609"/><text fill="#000000" font-family="sans-serif" font-size="13" lengthAdjust="spacingAndGlyphs" textLength="272" x="95.5" y="2553.4561">Cancel Patient Arriving, Tracking HL7 ADT^A32</text><polygon fill="#A80036" points="99.5,2584.3125,89.5,2588.3125,99.5,2592.3125,95.5,2588.3125" style="stroke: #A80036; stroke-width: 1.0;"/><line style="stroke: #A80036; stroke-width: 1.0; stroke-dasharray: 2.0,2.0;" x1="93.5" x2="412.5" y1="2588.3125" y2="2588.3125"/><text fill="#000000" font-family="sans-serif" font-size="13" lengthAdjust="spacingAndGlyphs" textLength="165" x="105.5" y="2583.8076">Acknowledge HL7 ADT^ACK</text><path d="M13,2635.6641 L285,2635.6641 L285,2643.6641 L275,2653.6641 L13,2653.6641 L13,2635.6641 " fill="#EEEEEE" style="stroke: #000000; stroke-width: 1.0;"/><rect fill="none" height="164.7578" style="stroke: #000000; stroke-width: 2.0;" width="476" x="13" y="2635.6641"/><text fill="#000000" font-family="sans-serif" font-size="13" font-weight="bold" lengthAdjust="spacingAndGlyphs" textLength="227" x="28" y="2650.1592">Maintain Demographics Option only</text><polygon fill="#A80036" points="396.5,2672.0156,406.5,2676.0156,396.5,2680.0156,400.5,2676.0156" style="stroke: #A80036; stroke-width: 1.0;"/><line style="stroke: #A80036; stroke-width: 1.0;" x1="88.5" x2="402.5" y1="2676.0156" y2="2676.0156"/><text fill="#000000" font-family="sans-serif" font-size="13" lengthAdjust="spacingAndGlyphs" textLength="237" x="95.5" y="2671.5107">Update Patient Information HL7 ADT^A08</text><polygon fill="#A80036" points="99.5,2702.3672,89.5,2706.3672,99.5,2710.3672,95.5,2706.3672" style="stroke: #A80036; stroke-width: 1.0;"/><line style="stroke: #A80036; stroke-width: 1.0; stroke-dasharray: 2.0,2.0;" x1="93.5" x2="412.5" y1="2706.3672" y2="2706.3672"/><text fill="#000000" font-family="sans-serif" font-size="13" lengthAdjust="spacingAndGlyphs" textLength="165" x="105.5" y="2701.8623">Acknowledge HL7 ADT^ACK</text><polygon fill="#A80036" points="396.5,2757.7188,406.5,2761.7188,396.5,2765.7188,400.5,2761.7188" style="stroke: #A80036; stroke-width: 1.0;"/><line style="stroke: #A80036; stroke-width: 1.0;" x1="88.5" x2="402.5" y1="2761.7188" y2="2761.7188"/><text fill="#000000" font-family="sans-serif" font-size="13" lengthAdjust="spacingAndGlyphs" textLength="249" x="95.5" y="2757.2139">Merge Patient Identifier Lists HL7 ADT^A40</text><polygon fill="#A80036" points="99.5,2788.0703,89.5,2792.0703,99.5,2796.0703,95.5,2792.0703" style="stroke: #A80036; stroke-width: 1.0;"/><line style="stroke: #A80036; stroke-width: 1.0; stroke-dasharray: 2.0,2.0;" x1="93.5" x2="412.5" y1="2792.0703" y2="2792.0703"/><text fill="#000000" font-family="sans-serif" font-size="13" lengthAdjust="spacingAndGlyphs" textLength="165" x="105.5" y="2787.5654">Acknowledge HL7 ADT^ACK</text><!--
@startuml
hide footbox

participant "Patient Encounter\nSource" as PDS
participant "Patient Encounter\nConsumer" as CON

group Basic Option (mandatory)
    PDS -> CON : Admit Inpatient HL7 ADT^A01
    activate CON
    CON - -> PDS : Acknowledge HL7 ADT^ACK
    deactivate CON
    |||
    PDS -> CON : Discharge Patient HL7 ADT^A03
    activate CON
    CON - -> PDS : Acknowledge HL7 ADT^ACK
    deactivate CON
    |||
    PDS -> CON : Register Outpatient HL7 ADT^A04
    activate CON
    CON - -> PDS : Acknowledge HL7 ADT^ACK
    deactivate CON
    |||
    PDS -> CON : Cancel Admit/Visit HL7 ADT^A11
    activate CON
    CON - -> PDS : Acknowledge HL7 ADT^ACK
    deactivate CON
    |||
    PDS -> CON : Cancel Discharge HL7 ADT^A13
    activate CON
    CON - -> PDS : Acknowledge HL7 ADT^ACK
    deactivate CON
end group
|||
group Inpatient/Outpatient Encounter Management Option only
    PDS -> CON : Preadmit Inpatient HL7 ADT^A05
    activate CON
    CON - -> PDS : Acknowledge HL7 ADT^ACK
    deactivate CON
    |||
    PDS -> CON : Cancel Preadmit HL7 ADT^A38
    activate CON
    CON - -> PDS : Acknowledge HL7 ADT^ACK
    deactivate CON
    |||
    PDS -> CON : Change to Inpatient HL7 ADT^A06
    activate CON
    CON - -> PDS : Acknowledge HL7 ADT^ACK
    deactivate CON
    |||
    PDS -> CON : Change to Outpatient HL7 ADT^A07
    activate CON
    CON - -> PDS : Acknowledge HL7 ADT^ACK
    deactivate CON
    |||
    PDS -> CON : Transfer Patient HL7 ADT^A02
    activate CON
    CON - -> PDS : Acknowledge HL7 ADT^ACK
    deactivate CON
    |||
    PDS -> CON : Cancel Patient Transfer HL7 ADT^A12
    activate CON
    CON - -> PDS : Acknowledge HL7 ADT^ACK
    deactivate CON
end group
|||
group Pending Event Management Option only
    PDS -> CON : Pending Admit of an Inpatient HL7 ADT^A14
    activate CON
    CON - -> PDS : Acknowledge HL7 ADT^ACK
    deactivate CON
    |||
    PDS -> CON : Cancel Pending Admit HL7 ADT^A27
    activate CON
    CON - -> PDS : Acknowledge HL7 ADT^ACK
    deactivate CON
    |||
    PDS -> CON : Pending Transfer HL7 ADT^A15
    activate CON
    CON - -> PDS : Acknowledge HL7 ADT^ACK
    deactivate CON
    |||
    PDS -> CON : Cancel Pending Transfer HL7 ADT^A26
    activate CON
    CON - -> PDS : Acknowledge HL7 ADT^ACK
    deactivate CON
    |||
    PDS -> CON : Pending Discharge HL7 ADT^A16
    activate CON
    CON - -> PDS : Acknowledge HL7 ADT^ACK
    deactivate CON
    |||
    PDS -> CON : Cancel Pending Discharge HL7 ADT^A25
    activate CON
    CON - -> PDS : Acknowledge HL7 ADT^ACK
    deactivate CON
end group
|||
group Advanced Encounter Management Option only
    PDS -> CON : Change Attending Doctor HL7 ADT^A54
    activate CON
    CON - -> PDS : Acknowledge HL7 ADT^ACK
    deactivate CON
    |||
    PDS -> CON : Cancel Change Attending Doctor HL7 ADT^A55
    activate CON
    CON - -> PDS : Acknowledge HL7 ADT^ACK
    deactivate CON
    |||
    PDS -> CON : Leave of Absence HL7 ADT^A21
    activate CON
    CON - -> PDS : Acknowledge HL7 ADT^ACK
    deactivate CON
    |||
    PDS -> CON : Cancel Leave of Absence HL7 ADT^A52
    activate CON
    CON - -> PDS : Acknowledge HL7 ADT^ACK
    deactivate CON
    |||
    PDS -> CON : Return from Leave of Absence HL7 ADT^A22
    activate CON
    CON - -> PDS : Acknowledge HL7 ADT^ACK
    deactivate CON
    |||
    PDS -> CON : Cancel Return from Leave of Absence HL7 ADT^A53
    activate CON
    CON - -> PDS : Acknowledge HL7 ADT^ACK
    deactivate CON
    |||
    PDS -> CON : Move Account Information HL7 ADT^A44
    activate CON
    CON - -> PDS : Acknowledge HL7 ADT^ACK
    deactivate CON
end group
|||
group Temporary Patient Transfers Tracking Option only
    PDS -> CON : Patient Departing, Tracking HL7 ADT^A09
    activate CON
    CON - -> PDS : Acknowledge HL7 ADT^ACK
    deactivate CON
    |||
    PDS -> CON : Patient Arriving, Tracking HL7 ADT^A55
    activate CON
    CON - -> PDS : Acknowledge HL7 ADT^ACK
    deactivate CON
    |||
    PDS -> CON : Cancel Patient Departing, Tracking HL7 ADT^A33
    activate CON
    CON - -> PDS : Acknowledge HL7 ADT^ACK
    deactivate CON
    |||
    PDS -> CON : Cancel Patient Arriving, Tracking HL7 ADT^A32
    activate CON
    CON - -> PDS : Acknowledge HL7 ADT^ACK
    deactivate CON
end group
|||
group Maintain Demographics Option only
    PDS -> CON : Update Patient Information HL7 ADT^A08
    activate CON
    CON - -> PDS : Acknowledge HL7 ADT^ACK
    deactivate CON
    |||
    PDS -> CON : Merge Patient Identifier Lists HL7 ADT^A40
    activate CON
    CON - -> PDS : Acknowledge HL7 ADT^ACK
    deactivate CON
end group
@enduml

PlantUML version 1.2018.01(Sun Jan 28 19:08:22 CET 2018)
(GPL source distribution)
Java Runtime: OpenJDK Runtime Environment
JVM: OpenJDK 64-Bit Server VM
Java Version: 1.8.0_152-release-1248-b8
Operating System: Windows 10
OS Version: 10.0
Default Encoding: Cp1252
Language: en
Country: US
--></g></svg>