<?xml version="1.0" encoding="UTF-8" standalone="no"?><svg xmlns="http://www.w3.org/2000/svg" xmlns:xlink="http://www.w3.org/1999/xlink" contentScriptType="application/ecmascript" contentStyleType="text/css" height="643px" preserveAspectRatio="none" style="width:475px;height:643px;" version="1.1" viewBox="0 0 475 643" width="475px" zoomAndPan="magnify"><defs><filter height="300%" id="f1b9of4cc4dlmh" width="300%" x="-1" y="-1"><feGaussianBlur result="blurOut" stdDeviation="2.0"/><feColorMatrix in="blurOut" result="blurOut2" type="matrix" values="0 0 0 0 0 0 0 0 0 0 0 0 0 0 0 0 0 0 .4 0"/><feOffset dx="4.0" dy="4.0" in="blurOut2" result="blurOut3"/><feBlend in="SourceGraphic" in2="blurOut3" mode="normal"/></filter></defs><g><rect fill="#FFFFFF" filter="url(#f1b9of4cc4dlmh)" height="30.3516" style="stroke: #A80036; stroke-width: 1.0;" width="10" x="370.5" y="89.2188"/><rect fill="#FFFFFF" filter="url(#f1b9of4cc4dlmh)" height="30.3516" style="stroke: #A80036; stroke-width: 1.0;" width="10" x="370.5" y="174.9219"/><rect fill="#FFFFFF" filter="url(#f1b9of4cc4dlmh)" height="30.3516" style="stroke: #A80036; stroke-width: 1.0;" width="10" x="370.5" y="260.625"/><rect fill="#FFFFFF" filter="url(#f1b9of4cc4dlmh)" height="30.3516" style="stroke: #A80036; stroke-width: 1.0;" width="10" x="370.5" y="371.6797"/><rect fill="#FFFFFF" filter="url(#f1b9of4cc4dlmh)" height="30.3516" style="stroke: #A80036; stroke-width: 1.0;" width="10" x="370.5" y="489.7344"/><rect fill="#FFFFFF" filter="url(#f1b9of4cc4dlmh)" height="30.3516" style="stroke: #A80036; stroke-width: 1.0;" width="10" x="370.5" y="575.4375"/><rect fill="#FFFFFF" filter="url(#f1b9of4cc4dlmh)" height="79.0547" style="stroke: #000000; stroke-width: 2.0;" width="451" x="13" y="331.3281"/><rect fill="#FFFFFF" filter="url(#f1b9of4cc4dlmh)" height="164.7578" style="stroke: #000000; stroke-width: 2.0;" width="451" x="13" y="449.3828"/><line style="stroke: #A80036; stroke-width: 1.0; stroke-dasharray: 5.0,5.0;" x1="101" x2="101" y1="57.2188" y2="631.1406"/><line style="stroke: #A80036; stroke-width: 1.0; stroke-dasharray: 5.0,5.0;" x1="375" x2="375" y1="57.2188" y2="631.1406"/><rect fill="#FEFECE" filter="url(#f1b9of4cc4dlmh)" height="49.2188" style="stroke: #A80036; stroke-width: 1.5;" width="153" x="23" y="3"/><text fill="#000000" font-family="sans-serif" font-size="14" lengthAdjust="spacingAndGlyphs" textLength="139" x="30" y="24.5332">Patient Demographics</text><text fill="#000000" font-family="sans-serif" font-size="14" lengthAdjust="spacingAndGlyphs" textLength="45" x="77" y="42.1426">Source</text><rect fill="#FEFECE" filter="url(#f1b9of4cc4dlmh)" height="49.2188" style="stroke: #A80036; stroke-width: 1.5;" width="153" x="297" y="3"/><text fill="#000000" font-family="sans-serif" font-size="14" lengthAdjust="spacingAndGlyphs" textLength="139" x="304" y="24.5332">Patient Demographics</text><text fill="#000000" font-family="sans-serif" font-size="14" lengthAdjust="spacingAndGlyphs" textLength="65" x="341" y="42.1426">Consumer</text><rect fill="#FFFFFF" filter="url(#f1b9of4cc4dlmh)" height="30.3516" style="stroke: #A80036; stroke-width: 1.0;" width="10" x="370.5" y="89.2188"/><rect fill="#FFFFFF" filter="url(#f1b9of4cc4dlmh)" height="30.3516" style="stroke: #A80036; stroke-width: 1.0;" width="10" x="370.5" y="174.9219"/><rect fill="#FFFFFF" filter="url(#f1b9of4cc4dlmh)" height="30.3516" style="stroke: #A80036; stroke-width: 1.0;" width="10" x="370.5" y="260.625"/><rect fill="#FFFFFF" filter="url(#f1b9of4cc4dlmh)" height="30.3516" style="stroke: #A80036; stroke-width: 1.0;" width="10" x="370.5" y="371.6797"/><rect fill="#FFFFFF" filter="url(#f1b9of4cc4dlmh)" height="30.3516" style="stroke: #A80036; stroke-width: 1.0;" width="10" x="370.5" y="489.7344"/><rect fill="#FFFFFF" filter="url(#f1b9of4cc4dlmh)" height="30.3516" style="stroke: #A80036; stroke-width: 1.0;" width="10" x="370.5" y="575.4375"/><polygon fill="#A80036" points="358.5,85.2188,368.5,89.2188,358.5,93.2188,362.5,89.2188" style="stroke: #A80036; stroke-width: 1.0;"/><line style="stroke: #A80036; stroke-width: 1.0;" x1="101.5" x2="364.5" y1="89.2188" y2="89.2188"/><text fill="#000000" font-family="sans-serif" font-size="13" lengthAdjust="spacingAndGlyphs" textLength="167" x="108.5" y="84.7139">Create Patient HL7 ADT^A28</text><polygon fill="#A80036" points="112.5,115.5703,102.5,119.5703,112.5,123.5703,108.5,119.5703" style="stroke: #A80036; stroke-width: 1.0;"/><line style="stroke: #A80036; stroke-width: 1.0; stroke-dasharray: 2.0,2.0;" x1="106.5" x2="374.5" y1="119.5703" y2="119.5703"/><text fill="#000000" font-family="sans-serif" font-size="13" lengthAdjust="spacingAndGlyphs" textLength="165" x="118.5" y="115.0654">Acknowledge HL7 ADT^ACK</text><polygon fill="#A80036" points="358.5,170.9219,368.5,174.9219,358.5,178.9219,362.5,174.9219" style="stroke: #A80036; stroke-width: 1.0;"/><line style="stroke: #A80036; stroke-width: 1.0;" x1="101.5" x2="364.5" y1="174.9219" y2="174.9219"/><text fill="#000000" font-family="sans-serif" font-size="13" lengthAdjust="spacingAndGlyphs" textLength="237" x="108.5" y="170.417">Update Patient Information HL7 ADT^A31</text><polygon fill="#A80036" points="112.5,201.2734,102.5,205.2734,112.5,209.2734,108.5,205.2734" style="stroke: #A80036; stroke-width: 1.0;"/><line style="stroke: #A80036; stroke-width: 1.0; stroke-dasharray: 2.0,2.0;" x1="106.5" x2="374.5" y1="205.2734" y2="205.2734"/><text fill="#000000" font-family="sans-serif" font-size="13" lengthAdjust="spacingAndGlyphs" textLength="165" x="118.5" y="200.7686">Acknowledge HL7 ADT^ACK</text><polygon fill="#A80036" points="358.5,256.625,368.5,260.625,358.5,264.625,362.5,260.625" style="stroke: #A80036; stroke-width: 1.0;"/><line style="stroke: #A80036; stroke-width: 1.0;" x1="101.5" x2="364.5" y1="260.625" y2="260.625"/><text fill="#000000" font-family="sans-serif" font-size="13" lengthAdjust="spacingAndGlyphs" textLength="250" x="108.5" y="256.1201">Change Patient Identifier List HL7 ADT^A47</text><polygon fill="#A80036" points="112.5,286.9766,102.5,290.9766,112.5,294.9766,108.5,290.9766" style="stroke: #A80036; stroke-width: 1.0;"/><line style="stroke: #A80036; stroke-width: 1.0; stroke-dasharray: 2.0,2.0;" x1="106.5" x2="374.5" y1="290.9766" y2="290.9766"/><text fill="#000000" font-family="sans-serif" font-size="13" lengthAdjust="spacingAndGlyphs" textLength="165" x="118.5" y="286.4717">Acknowledge HL7 ADT^ACK</text><path d="M13,331.3281 L175,331.3281 L175,339.3281 L165,349.3281 L13,349.3281 L13,331.3281 " fill="#EEEEEE" style="stroke: #000000; stroke-width: 1.0;"/><rect fill="none" height="79.0547" style="stroke: #000000; stroke-width: 2.0;" width="451" x="13" y="331.3281"/><text fill="#000000" font-family="sans-serif" font-size="13" font-weight="bold" lengthAdjust="spacingAndGlyphs" textLength="117" x="28" y="345.8232">Merge Option only</text><polygon fill="#A80036" points="358.5,367.6797,368.5,371.6797,358.5,375.6797,362.5,371.6797" style="stroke: #A80036; stroke-width: 1.0;"/><line style="stroke: #A80036; stroke-width: 1.0;" x1="101.5" x2="364.5" y1="371.6797" y2="371.6797"/><text fill="#000000" font-family="sans-serif" font-size="13" lengthAdjust="spacingAndGlyphs" textLength="196" x="108.5" y="367.1748">Merge two Patients HL7 ADT^A40</text><polygon fill="#A80036" points="112.5,398.0313,102.5,402.0313,112.5,406.0313,108.5,402.0313" style="stroke: #A80036; stroke-width: 1.0;"/><line style="stroke: #A80036; stroke-width: 1.0; stroke-dasharray: 2.0,2.0;" x1="106.5" x2="374.5" y1="402.0313" y2="402.0313"/><text fill="#000000" font-family="sans-serif" font-size="13" lengthAdjust="spacingAndGlyphs" textLength="165" x="118.5" y="397.5264">Acknowledge HL7 ADT^ACK</text><path d="M13,449.3828 L206,449.3828 L206,457.3828 L196,467.3828 L13,467.3828 L13,449.3828 " fill="#EEEEEE" style="stroke: #000000; stroke-width: 1.0;"/><rect fill="none" height="164.7578" style="stroke: #000000; stroke-width: 2.0;" width="451" x="13" y="449.3828"/><text fill="#000000" font-family="sans-serif" font-size="13" font-weight="bold" lengthAdjust="spacingAndGlyphs" textLength="148" x="28" y="463.8779">Link/Unlink Option only</text><polygon fill="#A80036" points="358.5,485.7344,368.5,489.7344,358.5,493.7344,362.5,489.7344" style="stroke: #A80036; stroke-width: 1.0;"/><line style="stroke: #A80036; stroke-width: 1.0;" x1="101.5" x2="364.5" y1="489.7344" y2="489.7344"/><text fill="#000000" font-family="sans-serif" font-size="13" lengthAdjust="spacingAndGlyphs" textLength="220" x="108.5" y="485.2295">Link Patient Information HL7 ADT^A24</text><polygon fill="#A80036" points="112.5,516.0859,102.5,520.0859,112.5,524.0859,108.5,520.0859" style="stroke: #A80036; stroke-width: 1.0;"/><line style="stroke: #A80036; stroke-width: 1.0; stroke-dasharray: 2.0,2.0;" x1="106.5" x2="374.5" y1="520.0859" y2="520.0859"/><text fill="#000000" font-family="sans-serif" font-size="13" lengthAdjust="spacingAndGlyphs" textLength="165" x="118.5" y="515.5811">Acknowledge HL7 ADT^ACK</text><polygon fill="#A80036" points="358.5,571.4375,368.5,575.4375,358.5,579.4375,362.5,575.4375" style="stroke: #A80036; stroke-width: 1.0;"/><line style="stroke: #A80036; stroke-width: 1.0;" x1="101.5" x2="364.5" y1="575.4375" y2="575.4375"/><text fill="#000000" font-family="sans-serif" font-size="13" lengthAdjust="spacingAndGlyphs" textLength="232" x="108.5" y="570.9326">Unlink Patient Information HL7 ADT^A37</text><polygon fill="#A80036" points="112.5,601.7891,102.5,605.7891,112.5,609.7891,108.5,605.7891" style="stroke: #A80036; stroke-width: 1.0;"/><line style="stroke: #A80036; stroke-width: 1.0; stroke-dasharray: 2.0,2.0;" x1="106.5" x2="374.5" y1="605.7891" y2="605.7891"/><text fill="#000000" font-family="sans-serif" font-size="13" lengthAdjust="spacingAndGlyphs" textLength="165" x="118.5" y="601.2842">Acknowledge HL7 ADT^ACK</text><!--
@startuml
hide footbox

participant "Patient Demographics\nSource" as PDS
participant "Patient Demographics\nConsumer" as CON

PDS -> CON : Create Patient HL7 ADT^A28
activate CON
CON - -> PDS : Acknowledge HL7 ADT^ACK
deactivate CON
|||
PDS -> CON : Update Patient Information HL7 ADT^A31
activate CON
CON - -> PDS : Acknowledge HL7 ADT^ACK
deactivate CON
|||
PDS -> CON : Change Patient Identifier List HL7 ADT^A47
activate CON
CON - -> PDS : Acknowledge HL7 ADT^ACK
deactivate CON
|||
group Merge Option only
    PDS -> CON : Merge two Patients HL7 ADT^A40
    activate CON
    CON - -> PDS : Acknowledge HL7 ADT^ACK
    deactivate CON

end group
|||
group Link/Unlink Option only
PDS -> CON : Link Patient Information HL7 ADT^A24
activate CON
CON - -> PDS : Acknowledge HL7 ADT^ACK
deactivate CON
|||
PDS -> CON : Unlink Patient Information HL7 ADT^A37
activate CON
CON - -> PDS : Acknowledge HL7 ADT^ACK
deactivate CON
end group
@enduml

PlantUML version 1.2018.01(Sun Jan 28 19:08:22 CET 2018)
(GPL source distribution)
Java Runtime: OpenJDK Runtime Environment
JVM: OpenJDK 64-Bit Server VM
Java Version: 1.8.0_152-release-1248-b8
Operating System: Windows 10
OS Version: 10.0
Default Encoding: Cp1252
Language: en
Country: US
--></g></svg>