<?xml version="1.0" encoding="UTF-8" standalone="no"?><svg xmlns="http://www.w3.org/2000/svg" xmlns:xlink="http://www.w3.org/1999/xlink" contentScriptType="application/ecmascript" contentStyleType="text/css" height="383px" preserveAspectRatio="none" style="width:680px;height:383px;" version="1.1" viewBox="0 0 680 383" width="680px" zoomAndPan="magnify"><defs><filter height="300%" id="ff2ll2yopi9u7" width="300%" x="-1" y="-1"><feGaussianBlur result="blurOut" stdDeviation="2.0"/><feColorMatrix in="blurOut" result="blurOut2" type="matrix" values="0 0 0 0 0 0 0 0 0 0 0 0 0 0 0 0 0 0 .4 0"/><feOffset dx="4.0" dy="4.0" in="blurOut2" result="blurOut3"/><feBlend in="SourceGraphic" in2="blurOut3" mode="normal"/></filter></defs><g><rect fill="#FFFFFF" filter="url(#ff2ll2yopi9u7)" height="30.3516" style="stroke: #A80036; stroke-width: 1.0;" width="10" x="109" y="190.3672"/><rect fill="#FFFFFF" filter="url(#ff2ll2yopi9u7)" height="30.3516" style="stroke: #A80036; stroke-width: 1.0;" width="10" x="109" y="316.4219"/><rect fill="#FFFFFF" filter="url(#ff2ll2yopi9u7)" height="30.3516" style="stroke: #A80036; stroke-width: 1.0;" width="10" x="532" y="97.3125"/><rect fill="#FFFFFF" filter="url(#ff2ll2yopi9u7)" height="156.4063" style="stroke: #A80036; stroke-width: 1.0;" width="10" x="532" y="190.3672"/><rect fill="#FFFFFF" filter="url(#ff2ll2yopi9u7)" height="79.0547" style="stroke: #000000; stroke-width: 2.0;" width="637" x="13" y="56.6094"/><rect fill="#FFFFFF" filter="url(#ff2ll2yopi9u7)" height="205.1094" style="stroke: #000000; stroke-width: 2.0;" width="656" x="13" y="149.6641"/><line style="stroke: #A80036; stroke-width: 1.0; stroke-dasharray: 5.0,5.0;" x1="114" x2="114" y1="39.6094" y2="371.7734"/><line style="stroke: #A80036; stroke-width: 1.0; stroke-dasharray: 5.0,5.0;" x1="537" x2="537" y1="39.6094" y2="371.7734"/><rect fill="#FEFECE" filter="url(#ff2ll2yopi9u7)" height="31.6094" style="stroke: #A80036; stroke-width: 1.5;" width="178" x="23" y="3"/><text fill="#000000" font-family="sans-serif" font-size="14" lengthAdjust="spacingAndGlyphs" textLength="164" x="30" y="24.5332">Initiating Imaging Gateway</text><rect fill="#FEFECE" filter="url(#ff2ll2yopi9u7)" height="31.6094" style="stroke: #A80036; stroke-width: 1.5;" width="202" x="434" y="3"/><text fill="#000000" font-family="sans-serif" font-size="14" lengthAdjust="spacingAndGlyphs" textLength="188" x="441" y="24.5332">Responding Imaging Gateway</text><rect fill="#FFFFFF" filter="url(#ff2ll2yopi9u7)" height="30.3516" style="stroke: #A80036; stroke-width: 1.0;" width="10" x="109" y="190.3672"/><rect fill="#FFFFFF" filter="url(#ff2ll2yopi9u7)" height="30.3516" style="stroke: #A80036; stroke-width: 1.0;" width="10" x="109" y="316.4219"/><rect fill="#FFFFFF" filter="url(#ff2ll2yopi9u7)" height="30.3516" style="stroke: #A80036; stroke-width: 1.0;" width="10" x="532" y="97.3125"/><rect fill="#FFFFFF" filter="url(#ff2ll2yopi9u7)" height="156.4063" style="stroke: #A80036; stroke-width: 1.0;" width="10" x="532" y="190.3672"/><path d="M13,56.6094 L195,56.6094 L195,64.6094 L185,74.6094 L13,74.6094 L13,56.6094 " fill="#EEEEEE" style="stroke: #000000; stroke-width: 1.0;"/><rect fill="none" height="79.0547" style="stroke: #000000; stroke-width: 2.0;" width="637" x="13" y="56.6094"/><text fill="#000000" font-family="sans-serif" font-size="13" font-weight="bold" lengthAdjust="spacingAndGlyphs" textLength="137" x="28" y="71.1045">Synchronous Request</text><polygon fill="#A80036" points="520,93.3125,530,97.3125,520,101.3125,524,97.3125" style="stroke: #A80036; stroke-width: 1.0;"/><line style="stroke: #A80036; stroke-width: 1.0;" x1="114" x2="526" y1="97.3125" y2="97.3125"/><text fill="#000000" font-family="sans-serif" font-size="13" lengthAdjust="spacingAndGlyphs" textLength="327" x="121" y="92.4561">Cross Gateway Retrieve Imaging Document Set Request</text><polygon fill="#A80036" points="125,123.6641,115,127.6641,125,131.6641,121,127.6641" style="stroke: #A80036; stroke-width: 1.0;"/><line style="stroke: #A80036; stroke-width: 1.0; stroke-dasharray: 2.0,2.0;" x1="119" x2="536" y1="127.6641" y2="127.6641"/><text fill="#000000" font-family="sans-serif" font-size="13" lengthAdjust="spacingAndGlyphs" textLength="337" x="131" y="122.8076">Cross Gateway Retrieve Imaging Document Set Response</text><path d="M13,149.6641 L201,149.6641 L201,157.6641 L191,167.6641 L13,167.6641 L13,149.6641 " fill="#EEEEEE" style="stroke: #000000; stroke-width: 1.0;"/><rect fill="none" height="205.1094" style="stroke: #000000; stroke-width: 2.0;" width="656" x="13" y="149.6641"/><text fill="#000000" font-family="sans-serif" font-size="13" font-weight="bold" lengthAdjust="spacingAndGlyphs" textLength="143" x="28" y="164.1592">Asynchronous Request</text><polygon fill="#A80036" points="520,186.3672,530,190.3672,520,194.3672,524,190.3672" style="stroke: #A80036; stroke-width: 1.0;"/><line style="stroke: #A80036; stroke-width: 1.0;" x1="119" x2="526" y1="190.3672" y2="190.3672"/><text fill="#000000" font-family="sans-serif" font-size="13" lengthAdjust="spacingAndGlyphs" textLength="327" x="126" y="185.5107">Cross Gateway Retrieve Imaging Document Set Request</text><polygon fill="#A80036" points="125,216.7188,115,220.7188,125,224.7188,121,220.7188" style="stroke: #A80036; stroke-width: 1.0;"/><line style="stroke: #A80036; stroke-width: 1.0; stroke-dasharray: 2.0,2.0;" x1="119" x2="531" y1="220.7188" y2="220.7188"/><text fill="#000000" font-family="sans-serif" font-size="13" lengthAdjust="spacingAndGlyphs" textLength="389" x="131" y="215.8623">Cross Gateway Retrieve Imaging Document Set Request Response</text><path d="M547,258.7188 L547,284.7188 L655,284.7188 L655,268.7188 L645,258.7188 L547,258.7188 " fill="#FBFB77" filter="url(#ff2ll2yopi9u7)" style="stroke: #A80036; stroke-width: 1.0;"/><path d="M645,258.7188 L645,268.7188 L655,268.7188 L645,258.7188 " fill="#FBFB77" style="stroke: #A80036; stroke-width: 1.0;"/><text fill="#000000" font-family="sans-serif" font-size="13" lengthAdjust="spacingAndGlyphs" textLength="87" x="553" y="277.2139">Handle request</text><polygon fill="#A80036" points="130,312.4219,120,316.4219,130,320.4219,126,316.4219" style="stroke: #A80036; stroke-width: 1.0;"/><line style="stroke: #A80036; stroke-width: 1.0;" x1="124" x2="531" y1="316.4219" y2="316.4219"/><text fill="#000000" font-family="sans-serif" font-size="13" lengthAdjust="spacingAndGlyphs" textLength="312" x="136" y="311.5654">Cross Gateway Retrieve Imaging Document Set Reply</text><polygon fill="#A80036" points="525,342.7734,535,346.7734,525,350.7734,529,346.7734" style="stroke: #A80036; stroke-width: 1.0;"/><line style="stroke: #A80036; stroke-width: 1.0; stroke-dasharray: 2.0,2.0;" x1="114" x2="531" y1="346.7734" y2="346.7734"/><text fill="#000000" font-family="sans-serif" font-size="13" lengthAdjust="spacingAndGlyphs" textLength="374" x="121" y="341.917">Cross Gateway Retrieve Imaging Document Set Reply Response</text><!--
@startuml
hide footbox

participant "Initiating Imaging Gateway" as IG
participant "Responding Imaging Gateway" as RG

group Synchronous Request
IG -> RG : Cross Gateway Retrieve Imaging Document Set Request
activate RG
RG - -> IG : Cross Gateway Retrieve Imaging Document Set Response
deactivate RG
end group

group Asynchronous Request
IG -> RG : Cross Gateway Retrieve Imaging Document Set Request
activate IG
activate RG
RG - -> IG : Cross Gateway Retrieve Imaging Document Set Request Response
deactivate IG
|||
note right of RG: Handle request
RG -> IG : Cross Gateway Retrieve Imaging Document Set Reply
activate IG
IG - -> RG : Cross Gateway Retrieve Imaging Document Set Reply Response
deactivate IG
deactivate RG
end group

@enduml

PlantUML version 1.2018.11(Sat Sep 22 18:43:53 CEST 2018)
(GPL source distribution)
Java Runtime: OpenJDK Runtime Environment
JVM: OpenJDK 64-Bit Server VM
Java Version: 1.8.0_152-release-1248-b19
Operating System: Windows 10
OS Version: 10.0
Default Encoding: Cp1252
Language: en
Country: US
--></g></svg>